<svg width="41" height="24" viewBox="0 0 41 24" fill="none" xmlns="http://www.w3.org/2000/svg">
<path d="M0 24V10.6321H5.51623C8.33459 10.6321 10.2166 12.4477 10.2166 15.1992V15.2178C10.2166 17.969 8.33459 19.7849 5.51623 19.7849H2.79985V24H0ZM4.83017 12.8462H2.79985V17.5985H4.83017C6.43406 17.5985 7.3797 16.7462 7.3797 15.2271V15.2084C7.3797 13.6893 6.43406 12.8462 4.83017 12.8462ZM15.678 24V12.9387H11.6637V10.6321H22.4922V12.9387H18.4778V24H15.678ZM24.6067 24V10.6321H27.4066V24H24.6067ZM33.5356 24V12.9387H29.5211V10.6321H40.3497V12.9387H36.3353V24H33.5356Z" fill="#DB0B0B"/>
<path d="M30.4128 0C30.0928 3.12899 29.7729 6.09749 29.4529 9.14627C29.3727 10.1893 29.2928 10.1893 30.3329 10.1893H33.053C33.1329 10.43 32.9728 10.43 32.8929 10.5102C31.6929 11.3927 30.4928 12.3554 29.2928 13.2381C28.9728 13.3984 28.8127 13.7193 28.8127 14.0404C28.6528 15.7252 28.4928 17.41 28.4128 19.0949C28.4128 19.2552 28.4928 19.4959 28.3327 19.4959C28.0928 19.5761 28.0127 19.3356 27.9327 19.2552C27.1327 18.4529 26.3327 17.5704 25.6128 16.7681C25.2928 16.367 25.0528 16.367 24.6526 16.6077C22.6526 17.8111 20.6526 19.0145 18.6526 20.1379C18.4925 20.2982 18.2525 20.3784 18.0124 20.3784C18.7325 19.2552 19.3725 18.2124 20.0926 17.0892C20.8125 15.8856 21.6125 14.6822 22.3326 13.559C22.5727 13.3182 22.5727 12.9172 22.3326 12.5961C21.7726 11.9543 21.2126 11.2321 20.6526 10.5904C20.5725 10.5102 20.4126 10.3497 20.4925 10.1893C20.5725 10.0288 20.8125 10.1089 20.8926 10.1089C21.9325 10.1089 22.9726 10.1089 23.9327 10.1089C24.3327 10.1089 24.6526 9.94859 24.8127 9.6277C26.4928 6.57889 28.2527 3.53013 30.0129 0.481375C30.0928 0.32091 30.2527 0.160465 30.4128 0Z" fill="#FFE600"/>
</svg>
