<svg width="24" height="24" viewBox="0 0 24 24" fill="none" xmlns="http://www.w3.org/2000/svg">
<path opacity="0.4" d="M18.5425 7.9955L18.3955 7.9115L16.936 7.0715L13.9225 5.3285C12.9985 4.793 11.5915 4.793 10.6675 5.3285L7.654 7.0715L6.1945 7.922L6.0055 8.027C4.126 9.287 4 9.518 4 11.5445V16.385C4 18.4115 4.126 18.6425 6.0475 19.934L10.6675 22.601C11.1295 22.874 11.707 23 12.295 23C12.8725 23 13.4605 22.874 13.9225 22.601L18.5845 19.9025C20.464 18.6425 20.59 18.4115 20.59 16.385V11.5445C20.59 9.518 20.464 9.287 18.5425 7.9955Z" fill="#FFC803"/>
<path d="M6.19446 7.922L7.65396 7.0715L10.531 5.4125L10.6675 5.3285C11.5915 4.793 12.9985 4.793 13.9225 5.3285L14.059 5.4125L16.936 7.0715L18.3955 7.9115V5.6645C18.3955 3.302 17.0935 2 14.731 2H9.84846C7.48596 2 6.19446 3.302 6.19446 5.6645V7.922Z" fill="#FFC803"/>
<path d="M15.277 13.907L14.626 14.705C14.521 14.8205 14.4475 15.0515 14.458 15.209L14.521 16.238C14.563 16.868 14.1115 17.1935 13.5235 16.9625L12.568 16.5845C12.421 16.532 12.169 16.532 12.022 16.5845L11.0665 16.9625C10.4785 17.1935 10.027 16.868 10.069 16.238L10.132 15.209C10.1425 15.0515 10.069 14.8205 9.96397 14.705L9.31297 13.907C8.90347 13.424 9.08197 12.8885 9.69097 12.731L10.6885 12.479C10.846 12.437 11.035 12.29 11.119 12.1535L11.6755 11.2925C12.022 10.757 12.568 10.757 12.9145 11.2925L13.471 12.1535C13.555 12.29 13.744 12.437 13.9015 12.479L14.899 12.731C15.508 12.8885 15.6865 13.424 15.277 13.907Z" fill="#FFC803"/>
</svg>
