<svg width="283" height="151" viewBox="0 0 283 151" fill="none" xmlns="http://www.w3.org/2000/svg">
<g filter="url(#filter0_f_210_924)">
<ellipse cx="254.776" cy="61.0515" rx="17.5015" ry="14.7381" transform="rotate(1.07834 254.776 61.0515)" fill="#EA973D"/>
</g>
<path d="M29.2372 125.904C28.4662 131.197 28.0505 136.567 28.0045 141.977L28.5045 141.982C28.5016 142.316 28.5002 142.651 28.5002 142.986H29.4206C29.4206 142.654 29.422 142.322 29.4248 141.99L29.9248 141.994C29.97 136.675 30.3787 131.396 31.1366 126.193L30.6418 126.121C30.7376 125.464 30.8389 124.808 30.9457 124.153L31.4392 124.233C32.2934 118.996 33.5024 113.841 35.0516 108.802L34.5737 108.655C34.7688 108.021 34.9692 107.388 35.175 106.757L35.6504 106.912C37.2927 101.879 39.2767 96.9692 41.5876 92.2184L41.138 91.9997C41.4283 91.4028 41.7238 90.8085 42.0243 90.2167L42.4701 90.4431C44.8621 85.7338 47.5791 81.1883 50.6062 76.8432L50.1959 76.5574C50.5753 76.0129 50.9595 75.4715 51.3485 74.9333L51.7537 75.2262C54.8396 70.9571 58.2301 66.8905 61.9109 63.062L61.5504 62.7155C61.7805 62.4762 62.0117 62.2378 62.2441 62.0003C62.4734 61.766 62.7035 61.5328 62.9346 61.3007L63.2889 61.6535C66.9951 57.9307 70.9296 54.4983 75.0583 51.3706L74.7564 50.972C75.2788 50.5763 75.8042 50.1855 76.3327 49.7995L76.6276 50.2033C80.857 47.1145 85.2812 44.3399 89.8651 41.8944L89.6297 41.4533C90.2075 41.1451 90.7878 40.842 91.3706 40.5442L91.5981 40.9895C96.2482 38.6132 101.055 36.5718 105.984 34.8804L105.821 34.4075C106.441 34.195 107.062 33.988 107.685 33.7865L107.839 34.2622C112.792 32.6601 117.863 31.4092 123.014 30.5248L122.929 30.032C123.574 29.9212 124.221 29.8162 124.868 29.7169L124.944 30.2111C130.073 29.4246 135.277 29.0006 140.522 28.9536L140.517 28.4537C140.845 28.4507 141.172 28.4493 141.5 28.4493C141.828 28.4493 142.156 28.4507 142.483 28.4537L142.479 28.9536C147.723 29.0006 152.927 29.4246 158.056 30.2111L158.132 29.7169C158.779 29.8162 159.426 29.9212 160.071 30.032L159.986 30.5248C165.137 31.4092 170.208 32.6601 175.162 34.2622L175.315 33.7865C175.938 33.988 176.56 34.195 177.179 34.4075L177.016 34.8804C181.945 36.5718 186.752 38.6132 191.402 40.9895L191.63 40.5442C192.212 40.842 192.793 41.1451 193.37 41.4533L193.135 41.8944C197.719 44.3399 202.143 47.1145 206.373 50.2033L206.668 49.7995C207.196 50.1855 207.721 50.5763 208.244 50.972L207.942 51.3706C212.071 54.4983 216.005 57.9307 219.711 61.6535L220.066 61.3007C220.297 61.5328 220.527 61.766 220.756 62.0003C220.988 62.2378 221.22 62.4762 221.45 62.7155L221.089 63.062C224.77 66.8905 228.161 70.9572 231.247 75.2262L231.652 74.9333C232.041 75.4715 232.425 76.0129 232.804 76.5574L232.394 76.8432C235.421 81.1883 238.138 85.7338 240.53 90.4431L240.976 90.2167C241.276 90.8085 241.572 91.4029 241.862 91.9997L241.413 92.2184C243.724 96.9692 245.708 101.879 247.35 106.912L247.825 106.757C248.031 107.388 248.231 108.021 248.427 108.655L247.949 108.802C249.498 113.841 250.707 118.996 251.561 124.233L252.055 124.153C252.161 124.808 252.263 125.464 252.358 126.121L251.864 126.193C252.622 131.396 253.03 136.675 253.075 141.994L253.575 141.99C253.578 142.322 253.58 142.654 253.58 142.986H254.5C254.5 142.651 254.499 142.316 254.496 141.982L254.996 141.977C254.95 136.567 254.534 131.197 253.763 125.904L253.268 125.976C253.172 125.313 253.07 124.651 252.962 123.991L253.455 123.911C252.586 118.583 251.356 113.339 249.781 108.214L249.303 108.361C249.106 107.721 248.904 107.083 248.696 106.447L249.172 106.292C247.501 101.172 245.483 96.1772 243.132 91.3447L242.683 91.5634C242.39 90.9615 242.092 90.3621 241.789 89.7653L242.234 89.5389C239.801 84.7484 237.038 80.1248 233.958 75.7048L233.548 75.9906C233.166 75.4416 232.778 74.8956 232.386 74.3529L232.791 74.06C229.652 69.7175 226.203 65.5808 222.459 61.6865L222.099 62.033C221.867 61.7917 221.634 61.5513 221.399 61.3119C221.168 61.0756 220.936 60.8405 220.703 60.6065L221.057 60.2537C217.287 56.4668 213.285 52.9753 209.085 49.7938L208.783 50.1924C208.257 49.7934 207.727 49.3994 207.194 49.0102L207.489 48.6065C203.187 45.4645 198.687 42.6421 194.024 40.1546L193.788 40.5957C193.206 40.285 192.621 39.9795 192.033 39.6793L192.261 39.234C187.531 36.8169 182.641 34.7403 177.628 33.0199L177.465 33.4928C176.841 33.2786 176.215 33.0699 175.587 32.8668L175.741 32.391C170.702 30.7613 165.544 29.4889 160.304 28.5892L160.22 29.082C159.57 28.9704 158.918 28.8645 158.265 28.7644L158.341 28.2702C153.124 27.4702 147.83 27.0388 142.495 26.9911L142.491 27.491C142.161 27.4881 141.831 27.4866 141.5 27.4866C141.17 27.4866 140.839 27.4881 140.509 27.491L140.505 26.9911C135.17 27.0388 129.876 27.4702 124.659 28.2702L124.735 28.7644C124.082 28.8645 123.431 28.9704 122.78 29.082L122.696 28.5892C117.456 29.4889 112.298 30.7613 107.259 32.391L107.413 32.8668C106.785 33.0699 106.159 33.2785 105.535 33.4928L105.373 33.0199C100.359 34.7403 95.4694 36.8169 90.7392 39.234L90.9668 39.6793C90.3793 39.9795 89.7942 40.285 89.2118 40.5957L88.9764 40.1546C84.3137 42.6421 79.8133 45.4644 75.5111 48.6065L75.806 49.0102C75.2732 49.3994 74.7434 49.7934 74.2168 50.1924L73.9148 49.7938C69.715 52.9753 65.7129 56.4668 61.9428 60.2537L62.2972 60.6065C62.0642 60.8405 61.8321 61.0756 61.601 61.3119C61.3667 61.5513 61.1335 61.7917 60.9015 62.033L60.5411 61.6865C56.797 65.5808 53.3481 69.7175 50.2091 74.06L50.6143 74.3529C50.2221 74.8956 49.8346 75.4415 49.4521 75.9906L49.0419 75.7048C45.9626 80.1247 43.1989 84.7484 40.7658 89.5388L41.2115 89.7653C40.9084 90.3621 40.6104 90.9614 40.3177 91.5634L39.868 91.3447C37.5173 96.1772 35.4992 101.172 33.8286 106.292L34.304 106.447C34.0964 107.083 33.8942 107.721 33.6974 108.361L33.2195 108.214C31.6437 113.339 30.4139 118.583 29.5449 123.911L30.0384 123.991C29.9307 124.651 29.8285 125.313 29.732 125.976L29.2372 125.904Z" stroke="#7A7A7A" stroke-dasharray="2 16"/>
<path d="M8.2724 150.007C3.86314 150.289 0.0363538 146.941 0.00383329 142.522C-0.251341 107.855 12.2407 74.1886 35.2629 48.0206C58.2851 21.8526 90.086 5.17385 124.503 1.01094C128.89 0.480401 132.698 3.84953 132.98 8.25879L132.999 8.56295C133.281 12.9722 129.929 16.7489 125.547 17.3118C95.4471 21.1775 67.6697 35.8699 47.5044 58.7905C27.3392 81.7112 16.3049 111.134 16.3048 141.481C16.3048 145.899 12.9858 149.705 8.57656 149.987L8.2724 150.007Z" fill="#3AAA58"/>
<path d="M135.848 8.10636C135.66 3.69205 139.09 -0.0618227 143.508 0.000771715C170.316 0.380605 196.471 8.37208 218.913 23.0404C222.612 25.4576 223.357 30.4871 220.735 34.0431L220.554 34.2884C217.932 37.8443 212.936 38.5774 209.22 36.1875C189.795 23.6947 167.287 16.8175 144.198 16.3204C139.78 16.2252 136.047 12.8252 135.86 8.41087L135.848 8.10636Z" fill="#FFCA0B"/>
<path d="M223.272 35.9611C225.978 32.4686 231.02 31.8145 234.354 34.7138C247.027 45.7348 257.637 58.9249 265.687 73.6649C267.805 77.5426 266.086 82.3273 262.095 84.2225L261.819 84.3532C257.828 86.2484 253.079 84.5344 250.933 80.6724C244.015 68.2249 235.024 57.0481 224.348 47.6245C221.035 44.7007 220.379 39.6944 223.085 36.202L223.272 35.9611Z" fill="#EA4234"/>
<path d="M262.676 85.4638C266.687 83.6096 271.464 85.3506 273.088 89.4593C279.768 106.354 283.132 124.378 282.996 142.545C282.963 146.963 279.136 150.31 274.727 150.027L274.422 150.008C270.013 149.725 266.695 145.92 266.695 141.502C266.697 126.048 263.838 110.726 258.261 96.3127C256.667 92.1921 258.389 87.4458 262.4 85.5917L262.676 85.4638Z" fill="#4285F5"/>
<circle cx="248" cy="60.9866" r="9.99999" fill="#F9F9F9" stroke="#EA4234" stroke-width="8"/>
<defs>
<filter id="filter0_f_210_924" x="167.275" y="-23.6877" width="175.001" height="169.478" filterUnits="userSpaceOnUse" color-interpolation-filters="sRGB">
<feFlood flood-opacity="0" result="BackgroundImageFix"/>
<feBlend mode="normal" in="SourceGraphic" in2="BackgroundImageFix" result="shape"/>
<feGaussianBlur stdDeviation="35" result="effect1_foregroundBlur_210_924"/>
</filter>
</defs>
</svg>
